<svg xmlns="http://www.w3.org/2000/svg" xmlns:xlink="http://www.w3.org/1999/xlink" width="500" zoomAndPan="magnify" viewBox="0 0 375 374.999991" height="500" preserveAspectRatio="xMidYMid meet" version="1.0"><defs><clipPath id="596f9173c4"><path d="M 0 23.164062 L 375 23.164062 L 375 351.664062 L 0 351.664062 Z M 0 23.164062 " clip-rule="nonzero"/></clipPath><clipPath id="4d89df20d3"><path d="M 106 105.578125 L 226 105.578125 L 226 269.078125 L 106 269.078125 Z M 106 105.578125 " clip-rule="nonzero"/></clipPath></defs><g clip-path="url(#596f9173c4)"><path fill="#c59b64" d="M 280.683594 23.164062 L 94.316406 23.164062 L 0.00390625 187.414062 L 94.316406 351.664062 L 280.683594 351.664062 L 374.996094 187.414062 L 280.683594 23.164062 M 275.550781 342.765625 L 99.449219 342.765625 L 10.265625 187.414062 L 99.449219 32.0625 L 275.550781 32.0625 L 364.734375 187.414062 L 275.550781 342.765625 " fill-opacity="1" fill-rule="nonzero"/></g><path fill="#000000" d="M 229.914062 159.296875 Z M 252.589844 125.847656 C 252.335938 125.847656 252.070312 125.878906 251.816406 125.945312 C 251.058594 126.152344 250.433594 126.636719 250.046875 127.304688 L 231.164062 160.015625 C 230.777344 160.691406 230.671875 161.476562 230.867188 162.234375 C 231.074219 162.988281 231.550781 163.621094 232.234375 164.011719 L 240.324219 168.679688 C 240.992188 169.070312 241.78125 169.171875 242.539062 168.96875 C 243.296875 168.765625 243.921875 168.285156 244.308594 167.609375 L 263.191406 134.902344 C 264.007812 133.503906 263.519531 131.714844 262.136719 130.90625 L 254.03125 126.234375 C 253.601562 125.976562 253.09375 125.847656 252.589844 125.847656 Z M 241.765625 171.945312 C 240.785156 171.945312 239.789062 171.695312 238.878906 171.167969 L 230.792969 166.496094 C 229.453125 165.726562 228.5 164.476562 228.101562 162.976562 C 227.699219 161.480469 227.90625 159.914062 228.679688 158.582031 L 247.5625 125.871094 C 248.320312 124.535156 249.570312 123.578125 251.074219 123.175781 C 252.574219 122.773438 254.136719 122.980469 255.472656 123.75 L 263.5625 128.417969 C 266.328125 130.019531 267.28125 133.566406 265.6875 136.335938 L 246.804688 169.046875 C 245.71875 170.90625 243.773438 171.945312 241.765625 171.945312 Z M 241.765625 171.945312 " fill-opacity="1" fill-rule="nonzero"/><path fill="#000000" d="M 262.121094 130.675781 C 261.867188 130.675781 261.617188 130.613281 261.390625 130.488281 C 260.707031 130.089844 260.46875 129.210938 260.871094 128.523438 L 265.792969 120.007812 C 265.898438 119.8125 265.839844 119.554688 265.628906 119.445312 L 262.210938 117.464844 C 262.089844 117.390625 261.957031 117.40625 261.898438 117.425781 C 261.839844 117.441406 261.71875 117.488281 261.644531 117.617188 L 256.722656 126.132812 C 256.335938 126.816406 255.460938 127.054688 254.761719 126.65625 C 254.078125 126.261719 253.855469 125.382812 254.238281 124.695312 L 259.160156 116.179688 C 259.59375 115.421875 260.308594 114.878906 261.15625 114.652344 C 262.003906 114.421875 262.894531 114.539062 263.652344 114.976562 L 267.074219 116.957031 C 267.832031 117.390625 268.382812 118.105469 268.605469 118.953125 C 268.828125 119.800781 268.707031 120.683594 268.277344 121.441406 L 263.355469 129.957031 C 263.085938 130.417969 262.613281 130.675781 262.121094 130.675781 Z M 262.121094 130.675781 " fill-opacity="1" fill-rule="nonzero"/><path fill="#000000" d="M 205.988281 233.992188 C 205.734375 233.992188 205.5 233.929688 205.277344 233.796875 L 193.363281 226.921875 C 192.679688 226.527344 192.441406 225.648438 192.828125 224.964844 C 193.230469 224.277344 194.109375 224.039062 194.792969 224.4375 L 206.703125 231.3125 C 207.386719 231.710938 207.625 232.585938 207.222656 233.273438 C 206.96875 233.734375 206.480469 233.992188 205.988281 233.992188 Z M 205.988281 233.992188 " fill-opacity="1" fill-rule="nonzero"/><path fill="#000000" d="M 250.925781 174.226562 C 250.671875 174.226562 250.433594 174.167969 250.195312 174.035156 C 249.511719 173.640625 249.289062 172.761719 249.675781 172.070312 L 264.007812 147.25 L 259.296875 144.527344 C 258.613281 144.128906 258.375 143.253906 258.773438 142.566406 C 259.160156 141.878906 260.054688 141.644531 260.738281 142.039062 L 266.6875 145.480469 C 267.011719 145.671875 267.265625 145.984375 267.355469 146.351562 C 267.460938 146.71875 267.398438 147.109375 267.222656 147.4375 L 252.160156 173.507812 C 251.90625 173.96875 251.414062 174.226562 250.925781 174.226562 Z M 250.925781 174.226562 " fill-opacity="1" fill-rule="nonzero"/><path fill="#000000" d="M 189.230469 249.257812 C 188.992188 249.257812 188.742188 249.195312 188.519531 249.066406 C 187.96875 248.75 187.699219 248.125 187.832031 247.515625 L 192.679688 225.375 C 192.710938 225.230469 192.753906 225.089844 192.828125 224.964844 L 228.664062 162.910156 C 229.050781 162.222656 229.929688 161.988281 230.628906 162.386719 C 231.3125 162.785156 231.535156 163.660156 231.148438 164.347656 L 195.433594 226.203125 L 191.59375 243.722656 L 204.859375 231.644531 L 240.558594 169.789062 C 240.960938 169.097656 241.839844 168.863281 242.523438 169.261719 C 243.222656 169.65625 243.460938 170.535156 243.058594 171.222656 L 207.222656 233.273438 C 207.148438 233.402344 207.058594 233.519531 206.957031 233.617188 L 190.199219 248.882812 C 189.929688 249.128906 189.589844 249.257812 189.230469 249.257812 Z M 189.230469 249.257812 " fill-opacity="1" fill-rule="nonzero"/><g clip-path="url(#4d89df20d3)"><path fill="#000000" d="M 223.816406 269.261719 L 107.570312 269.261719 C 106.765625 269.261719 106.125 268.621094 106.125 267.828125 L 106.125 107.015625 C 106.125 106.222656 106.765625 105.578125 107.570312 105.578125 L 223.816406 105.578125 C 224.605469 105.578125 225.246094 106.222656 225.246094 107.015625 L 225.246094 174.175781 C 225.246094 174.96875 224.605469 175.613281 223.816406 175.613281 C 223.015625 175.613281 222.375 174.96875 222.375 174.175781 L 222.375 108.449219 L 108.996094 108.449219 L 108.996094 266.390625 L 222.375 266.390625 L 222.375 201.648438 C 222.375 200.855469 223.015625 200.210938 223.816406 200.210938 C 224.605469 200.210938 225.246094 200.855469 225.246094 201.648438 L 225.246094 267.828125 C 225.246094 268.621094 224.605469 269.261719 223.816406 269.261719 Z M 223.816406 269.261719 " fill-opacity="1" fill-rule="nonzero"/></g><path fill="#000000" d="M 203.222656 128.792969 L 128.148438 128.792969 C 127.359375 128.792969 126.707031 128.152344 126.707031 127.355469 C 126.707031 126.5625 127.359375 125.921875 128.148438 125.921875 L 203.222656 125.921875 C 204.027344 125.921875 204.664062 126.5625 204.664062 127.355469 C 204.664062 128.152344 204.027344 128.792969 203.222656 128.792969 Z M 203.222656 128.792969 " fill-opacity="1" fill-rule="nonzero"/><path fill="#000000" d="M 203.222656 142.554688 L 128.148438 142.554688 C 127.359375 142.554688 126.707031 141.910156 126.707031 141.117188 C 126.707031 140.320312 127.359375 139.679688 128.148438 139.679688 L 203.222656 139.679688 C 204.027344 139.679688 204.664062 140.320312 204.664062 141.117188 C 204.664062 141.910156 204.027344 142.554688 203.222656 142.554688 Z M 203.222656 142.554688 " fill-opacity="1" fill-rule="nonzero"/><path fill="#000000" d="M 203.222656 156.308594 L 128.148438 156.308594 C 127.359375 156.308594 126.707031 155.664062 126.707031 154.871094 C 126.707031 154.078125 127.359375 153.4375 128.148438 153.4375 L 203.222656 153.4375 C 204.027344 153.4375 204.664062 154.078125 204.664062 154.871094 C 204.664062 155.664062 204.027344 156.308594 203.222656 156.308594 Z M 203.222656 156.308594 " fill-opacity="1" fill-rule="nonzero"/><path fill="#000000" d="M 203.222656 170.0625 L 128.148438 170.0625 C 127.359375 170.0625 126.707031 169.421875 126.707031 168.628906 C 126.707031 167.835938 127.359375 167.191406 128.148438 167.191406 L 203.222656 167.191406 C 204.027344 167.191406 204.664062 167.835938 204.664062 168.628906 C 204.664062 169.421875 204.027344 170.0625 203.222656 170.0625 Z M 203.222656 170.0625 " fill-opacity="1" fill-rule="nonzero"/><path fill="#000000" d="M 203.222656 183.824219 L 128.148438 183.824219 C 127.359375 183.824219 126.707031 183.179688 126.707031 182.386719 C 126.707031 181.589844 127.359375 180.953125 128.148438 180.953125 L 203.222656 180.953125 C 204.027344 180.953125 204.664062 181.589844 204.664062 182.386719 C 204.664062 183.179688 204.027344 183.824219 203.222656 183.824219 Z M 203.222656 183.824219 " fill-opacity="1" fill-rule="nonzero"/><path fill="#000000" d="M 172.472656 197.578125 L 128.148438 197.578125 C 127.359375 197.578125 126.707031 196.9375 126.707031 196.144531 C 126.707031 195.351562 127.359375 194.707031 128.148438 194.707031 L 172.472656 194.707031 C 173.261719 194.707031 173.902344 195.351562 173.902344 196.144531 C 173.902344 196.9375 173.261719 197.578125 172.472656 197.578125 Z M 172.472656 197.578125 " fill-opacity="1" fill-rule="nonzero"/><path fill="#000000" d="M 137.785156 234.039062 C 137.410156 235.101562 137.054688 236.167969 136.726562 237.230469 C 134.421875 244.644531 134.289062 248.515625 134.617188 249.597656 C 134.941406 249.433594 135.628906 248.984375 136.773438 247.726562 C 140.609375 243.550781 142.109375 240.144531 141.234375 237.601562 C 140.726562 236.128906 139.433594 234.960938 137.785156 234.039062 Z M 134.378906 252.558594 C 133.976562 252.558594 133.589844 252.464844 133.1875 252.242188 C 132.371094 251.777344 129.859375 250.359375 133.621094 237.5625 C 134.007812 236.277344 134.527344 234.660156 135.167969 232.851562 C 132 231.675781 128.402344 231.058594 126.289062 230.699219 C 125.101562 230.496094 124.3125 230.363281 123.820312 230.199219 C 123.0625 229.949219 122.660156 229.132812 122.914062 228.378906 C 123.167969 227.628906 123.96875 227.222656 124.726562 227.472656 C 125.011719 227.566406 125.859375 227.714844 126.78125 227.867188 C 129.160156 228.277344 132.816406 228.898438 136.164062 230.15625 C 139.671875 221.089844 145.558594 209.46875 151.492188 209.8125 C 154.941406 210.019531 157.277344 213.941406 158.628906 221.8125 C 160.695312 233.929688 161.039062 242.230469 159.671875 247.066406 L 161.992188 247.507812 L 165.144531 244.871094 C 165.46875 244.601562 165.902344 244.484375 166.316406 244.558594 L 170.378906 245.269531 L 173.53125 242.625 C 173.855469 242.355469 174.289062 242.238281 174.703125 242.308594 L 178.761719 243.023438 L 181.929688 240.375 C 182.523438 239.867188 183.433594 239.945312 183.953125 240.554688 C 184.457031 241.164062 184.367188 242.070312 183.773438 242.578125 L 180.101562 245.652344 C 179.773438 245.925781 179.34375 246.039062 178.925781 245.964844 L 174.867188 245.253906 L 171.699219 247.898438 C 171.386719 248.171875 170.957031 248.289062 170.539062 248.214844 L 166.480469 247.503906 L 163.3125 250.144531 C 162.988281 250.421875 162.554688 250.539062 162.125 250.457031 L 157.484375 249.578125 C 157.054688 249.496094 156.667969 249.21875 156.472656 248.824219 C 156.265625 248.433594 156.265625 247.96875 156.445312 247.566406 C 157.664062 244.910156 158.539062 238.371094 155.789062 222.296875 C 154.40625 214.148438 152.355469 212.875 151.539062 212.710938 C 150.007812 212.398438 147.613281 214.519531 145.097656 218.390625 C 142.941406 221.710938 140.683594 226.371094 138.78125 231.320312 C 141.171875 232.585938 143.136719 234.304688 143.953125 236.667969 C 145.1875 240.28125 143.492188 244.65625 138.898438 249.667969 C 138.109375 250.527344 136.253906 252.558594 134.378906 252.558594 Z M 134.378906 252.558594 " fill-opacity="1" fill-rule="nonzero"/></svg>