<svg xmlns="http://www.w3.org/2000/svg" xmlns:xlink="http://www.w3.org/1999/xlink" width="500" zoomAndPan="magnify" viewBox="0 0 375 374.999991" height="500" preserveAspectRatio="xMidYMid meet" version="1.0"><defs><clipPath id="8373786b56"><path d="M 0 23.164062 L 375 23.164062 L 375 351.664062 L 0 351.664062 Z M 0 23.164062 " clip-rule="nonzero"/></clipPath><clipPath id="03d40ac73b"><path d="M 112.5 112.5 L 262.5 112.5 L 262.5 262.5 L 112.5 262.5 Z M 112.5 112.5 " clip-rule="nonzero"/></clipPath></defs><g clip-path="url(#8373786b56)"><path fill="#c59b64" d="M 280.683594 23.164062 L 94.316406 23.164062 L 0.00390625 187.414062 L 94.316406 351.664062 L 280.683594 351.664062 L 374.996094 187.414062 L 280.683594 23.164062 M 275.550781 342.765625 L 99.449219 342.765625 L 10.265625 187.414062 L 99.449219 32.0625 L 275.550781 32.0625 L 364.734375 187.414062 L 275.550781 342.765625 " fill-opacity="1" fill-rule="nonzero"/></g><g clip-path="url(#03d40ac73b)"><path fill="#000000" d="M 261.886719 156.921875 C 261.507812 156.714844 261.042969 156.726562 260.675781 156.957031 L 238.367188 170.957031 L 238.367188 113.90625 C 238.367188 113.25 237.839844 112.714844 237.179688 112.714844 L 137.644531 112.5 C 137.328125 112.5 137.023438 112.625 136.800781 112.847656 C 136.578125 113.070312 136.453125 113.375 136.453125 113.691406 L 136.453125 170.84375 L 114.324219 156.957031 C 113.957031 156.726562 113.492188 156.714844 113.113281 156.921875 C 112.734375 157.132812 112.5 157.53125 112.5 157.964844 L 112.5 209.332031 C 112.5 209.785156 112.753906 210.195312 113.15625 210.398438 L 137.453125 222.605469 L 137.441406 247.988281 C 137.441406 248.304688 137.566406 248.605469 137.789062 248.828125 C 138.011719 249.050781 138.3125 249.179688 138.632812 249.179688 L 160.289062 249.179688 C 160.644531 250.136719 161.246094 250.996094 162.042969 251.660156 C 163.109375 252.554688 164.464844 253.046875 165.867188 253.046875 C 166.433594 253.046875 166.980469 252.945312 167.515625 252.792969 C 167.621094 254.375 168.351562 255.890625 169.632812 256.953125 C 170.710938 257.84375 172.0625 258.332031 173.441406 258.332031 C 174.355469 258.332031 175.242188 258.121094 176.046875 257.730469 C 176.308594 259.03125 176.992188 260.234375 178.0625 261.117188 C 179.136719 262.007812 180.492188 262.5 181.867188 262.5 C 183.632812 262.5 185.296875 261.722656 186.433594 260.371094 L 188.953125 257.375 C 189.910156 258.140625 191.410156 259.007812 193.367188 259.007812 C 193.488281 259.007812 193.609375 259.003906 193.730469 258.996094 C 195.902344 258.878906 197.40625 257.753906 198.144531 257.0625 L 198.992188 256.203125 C 199.960938 255.214844 200.558594 253.960938 200.738281 252.640625 C 201.480469 252.917969 202.261719 253.058594 203.042969 253.058594 C 204.734375 253.058594 206.421875 252.410156 207.671875 251.132812 L 208.523438 250.269531 C 208.847656 249.933594 209.117188 249.5625 209.355469 249.175781 L 236.382812 249.175781 C 236.699219 249.175781 237 249.050781 237.222656 248.828125 C 237.445312 248.605469 237.570312 248.300781 237.570312 247.984375 L 237.546875 222.601562 L 261.84375 210.394531 C 262.246094 210.195312 262.5 209.78125 262.5 209.332031 L 262.5 157.964844 C 262.5 157.53125 262.265625 157.132812 261.886719 156.921875 Z M 138.832031 114.882812 L 235.988281 115.09375 L 235.988281 172.449219 L 212.761719 187.027344 C 212.488281 187.199219 212.292969 187.476562 212.230469 187.792969 C 212.164062 188.109375 212.226562 188.4375 212.410156 188.703125 L 213.753906 190.683594 L 211.113281 192.625 C 210.085938 191.40625 208.617188 190.558594 206.910156 190.246094 L 197.625 188.589844 C 195.730469 188.257812 193.8125 188.242188 191.914062 188.550781 L 164.453125 193.042969 L 161.246094 190.6875 L 162.589844 188.707031 C 162.773438 188.4375 162.839844 188.109375 162.769531 187.792969 C 162.703125 187.476562 162.511719 187.203125 162.238281 187.027344 L 138.832031 172.339844 Z M 215.859375 235.648438 C 215.558594 234.28125 214.804688 233.023438 213.648438 232.09375 C 210.378906 229.46875 206.75 226.492188 203.144531 223.535156 C 200.46875 221.339844 197.8125 219.164062 195.3125 217.136719 C 195.722656 217.152344 196.132812 217.167969 196.546875 217.167969 C 198.144531 217.167969 199.746094 217.039062 201.335938 216.785156 C 205.101562 216.167969 208.675781 214.851562 211.960938 212.863281 C 212.523438 212.523438 212.703125 211.792969 212.363281 211.230469 C 212.023438 210.667969 211.296875 210.484375 210.730469 210.828125 C 207.707031 212.65625 204.414062 213.867188 200.953125 214.433594 C 197.507812 214.992188 194.007812 214.890625 190.550781 214.132812 C 190.539062 214.132812 190.523438 214.128906 190.507812 214.125 C 190.011719 213.960938 189.515625 213.835938 189.054688 213.769531 C 186.945312 213.394531 184.804688 213.6875 182.867188 214.601562 C 182.003906 215.003906 181.222656 215.347656 180.535156 215.648438 L 180.269531 215.761719 C 174.460938 218.25 172.628906 218.199219 171.839844 218.167969 C 168.753906 218.097656 166.96875 217.507812 166.535156 216.414062 C 166.253906 215.707031 166.511719 214.65625 167.234375 213.601562 C 167.730469 212.875 168.488281 212.21875 169.480469 211.660156 L 187.679688 201.605469 L 193.464844 201.078125 C 200.800781 203.539062 206.613281 202.53125 209.617188 200.746094 C 210.796875 200.046875 211.640625 199.183594 212.117188 198.21875 L 228.523438 221.867188 C 226.921875 224.175781 225.148438 226.4375 223.222656 228.585938 C 220.953125 231.113281 218.476562 233.472656 215.859375 235.648438 Z M 144.742188 220.183594 L 142.398438 218.457031 L 159.910156 192.65625 L 162.515625 194.570312 Z M 139.832031 222.234375 L 141.0625 220.425781 L 144.195312 222.738281 C 146.160156 225.273438 148.292969 227.78125 150.527344 230.1875 C 152.210938 232.015625 153.984375 233.792969 155.800781 235.511719 L 154.03125 237.628906 C 153.007812 238.84375 152.523438 240.382812 152.664062 241.957031 C 152.804688 243.539062 153.554688 244.96875 154.777344 245.992188 C 155.183594 246.324219 155.636719 246.582031 156.109375 246.796875 L 139.820312 246.796875 Z M 164.910156 239.234375 C 164.765625 239.539062 164.589844 239.820312 164.382812 240.070312 L 161.351562 243.695312 C 161.152344 243.925781 160.984375 244.085938 160.824219 244.203125 C 160.78125 244.234375 160.738281 244.269531 160.703125 244.308594 C 159.417969 245.21875 157.527344 245.171875 156.300781 244.160156 C 155.570312 243.546875 155.121094 242.691406 155.035156 241.746094 C 154.953125 240.804688 155.242188 239.886719 155.855469 239.160156 L 158.289062 236.246094 C 158.292969 236.242188 158.296875 236.242188 158.304688 236.238281 C 158.3125 236.230469 158.3125 236.21875 158.320312 236.214844 L 158.902344 235.515625 C 159.582031 234.703125 160.582031 234.238281 161.644531 234.238281 C 162.476562 234.238281 163.292969 234.535156 163.941406 235.070312 C 165.160156 236.089844 165.554688 237.808594 164.910156 239.234375 Z M 163.574219 249.835938 C 162.9375 249.304688 162.507812 248.570312 162.359375 247.765625 C 162.238281 247.121094 162.304688 246.476562 162.535156 245.871094 C 162.738281 245.695312 162.941406 245.496094 163.160156 245.242188 L 166.214844 241.59375 C 166.46875 241.28125 166.6875 240.933594 166.886719 240.566406 C 168.144531 239.699219 170.007812 239.753906 171.214844 240.75 C 172.390625 241.726562 172.808594 243.335938 172.242188 244.773438 C 172.109375 245.121094 171.917969 245.445312 171.660156 245.757812 L 168.628906 249.367188 C 168.496094 249.519531 168.367188 249.660156 168.21875 249.789062 C 166.929688 250.90625 164.859375 250.921875 163.574219 249.835938 Z M 171.152344 255.121094 C 170.03125 254.191406 169.609375 252.683594 170.054688 251.3125 C 170.179688 251.183594 170.308594 251.066406 170.4375 250.921875 L 173.488281 247.285156 C 173.828125 246.875 174.082031 246.433594 174.292969 245.984375 C 175.550781 244.996094 177.523438 244.988281 178.789062 246.035156 C 179.875 246.9375 180.320312 248.398438 179.921875 249.765625 C 179.921875 249.777344 179.910156 249.785156 179.910156 249.792969 C 179.769531 250.246094 179.539062 250.675781 179.242188 251.03125 L 176.398438 254.410156 C 176.386719 254.421875 176.386719 254.4375 176.378906 254.449219 L 176.183594 254.675781 C 174.96875 256.117188 172.632812 256.34375 171.152344 255.121094 Z M 184.613281 258.839844 C 183.398438 260.285156 181.066406 260.511719 179.578125 259.285156 C 178.527344 258.417969 178.085938 257.035156 178.40625 255.722656 L 181.070312 252.558594 C 181.5 252.042969 181.824219 251.433594 182.058594 250.796875 L 182.183594 250.648438 C 183.394531 249.203125 185.746094 248.988281 187.21875 250.203125 C 188.625 251.367188 188.90625 253.453125 187.816406 255.011719 C 187.789062 255.058594 187.753906 255.09375 187.671875 255.199219 Z M 205.96875 249.464844 C 204.449219 251.023438 201.910156 251.09375 200.238281 249.589844 C 200.207031 249.558594 200.179688 249.53125 200.144531 249.507812 L 182.820312 233.519531 C 182.339844 233.074219 181.582031 233.101562 181.136719 233.585938 C 180.691406 234.070312 180.722656 234.824219 181.207031 235.269531 L 198.332031 251.066406 C 198.582031 252.304688 198.203125 253.613281 197.296875 254.535156 L 196.484375 255.355469 C 196.109375 255.710938 195.070312 256.539062 193.601562 256.621094 C 192.117188 256.6875 190.988281 255.988281 190.316406 255.417969 C 191.421875 253.027344 190.824219 250.09375 188.734375 248.371094 C 187.652344 247.476562 186.335938 247.003906 184.929688 247.003906 C 184.007812 247.003906 183.121094 247.214844 182.320312 247.597656 C 182.058594 246.292969 181.375 245.085938 180.308594 244.203125 C 178.800781 242.957031 176.703125 242.621094 174.855469 243.121094 C 174.757812 241.523438 174.03125 239.992188 172.734375 238.917969 C 171.320312 237.746094 169.355469 237.371094 167.578125 237.753906 C 167.5625 236.050781 166.828125 234.382812 165.460938 233.242188 C 164.382812 232.351562 163.027344 231.859375 161.644531 231.859375 C 160.015625 231.859375 158.476562 232.527344 157.347656 233.699219 C 155.605469 232.042969 153.898438 230.335938 152.277344 228.570312 C 150.242188 226.386719 148.316406 224.113281 146.511719 221.816406 L 164.84375 195.394531 L 192.296875 190.90625 C 193.929688 190.636719 195.585938 190.652344 197.207031 190.9375 L 206.488281 192.589844 C 207.957031 192.859375 209.15625 193.691406 209.78125 194.871094 C 209.8125 194.925781 209.847656 194.980469 209.882812 195.03125 C 209.875 195.019531 209.855469 194.988281 209.855469 194.988281 C 209.855469 194.988281 209.855469 194.992188 209.855469 194.992188 C 210.152344 195.617188 210.257812 196.144531 210.171875 196.613281 C 210.046875 197.355469 209.421875 198.097656 208.40625 198.703125 C 205.941406 200.164062 200.691406 201.050781 193.996094 198.746094 C 193.839844 198.691406 193.667969 198.671875 193.5 198.6875 L 187.214844 199.257812 C 187.050781 199.273438 186.890625 199.320312 186.746094 199.402344 L 168.320312 209.585938 C 167 210.328125 165.972656 211.230469 165.269531 212.257812 C 164.082031 213.992188 163.738281 215.832031 164.324219 217.296875 C 165.554688 220.410156 170.082031 220.511719 171.777344 220.546875 C 171.875 220.550781 171.972656 220.554688 172.078125 220.554688 C 173.636719 220.554688 176.015625 220.175781 181.21875 217.949219 L 181.492188 217.828125 C 182.195312 217.519531 182.996094 217.171875 183.882812 216.757812 C 185.363281 216.058594 186.992188 215.835938 188.625 216.113281 C 189.015625 216.214844 189.453125 216.328125 189.949219 216.441406 C 190.796875 216.75 191.570312 217.175781 192.242188 217.714844 C 195.175781 220.078125 198.398438 222.71875 201.636719 225.375 C 205.25 228.339844 208.886719 231.324219 212.160156 233.953125 C 213.34375 234.90625 213.871094 236.398438 213.53125 237.867188 C 213.351562 238.699219 212.902344 239.4375 212.167969 240.070312 C 211.304688 240.941406 209.859375 241.6875 208.867188 241.882812 C 208.675781 241.644531 208.476562 241.429688 208.273438 241.246094 L 191.75 226.007812 C 191.265625 225.5625 190.515625 225.59375 190.066406 226.078125 C 189.621094 226.5625 189.652344 227.3125 190.136719 227.757812 L 206.675781 243.011719 C 206.898438 243.207031 207.109375 243.460938 207.316406 243.769531 C 208.039062 244.886719 208.140625 246.277344 207.589844 247.5 C 207.40625 247.902344 207.144531 248.277344 206.824219 248.609375 Z M 210.242188 246.796875 C 210.378906 245.875 210.3125 244.9375 210.035156 244.046875 C 211.472656 243.609375 212.917969 242.691406 213.785156 241.8125 C 214.726562 241.007812 215.375 239.976562 215.714844 238.828125 C 219.046875 236.226562 222.171875 233.320312 224.992188 230.175781 C 227.128906 227.792969 229.09375 225.28125 230.839844 222.710938 L 233.9375 220.425781 L 235.167969 222.234375 L 235.1875 246.796875 Z M 260.117188 208.597656 L 236.753906 220.335938 L 215.070312 188.386719 L 260.117188 160.117188 Z M 260.117188 208.597656 " fill-opacity="1" fill-rule="nonzero"/></g><path fill="#000000" d="M 181.820312 131.84375 L 213.046875 131.84375 C 213.707031 131.84375 214.238281 131.3125 214.238281 130.65625 C 214.238281 129.996094 213.707031 129.464844 213.046875 129.464844 L 181.820312 129.464844 C 181.164062 129.464844 180.632812 129.996094 180.632812 130.65625 C 180.632812 131.3125 181.164062 131.84375 181.820312 131.84375 Z M 181.820312 131.84375 " fill-opacity="1" fill-rule="nonzero"/><path fill="#000000" d="M 177.558594 141.738281 L 220.144531 141.738281 C 220.800781 141.738281 221.332031 141.203125 221.332031 140.546875 C 221.332031 139.890625 220.800781 139.355469 220.144531 139.355469 L 177.558594 139.355469 C 176.902344 139.355469 176.367188 139.890625 176.367188 140.546875 C 176.367188 141.203125 176.902344 141.738281 177.558594 141.738281 Z M 177.558594 141.738281 " fill-opacity="1" fill-rule="nonzero"/><path fill="#000000" d="M 156.273438 159.15625 C 155.617188 159.15625 155.082031 159.6875 155.082031 160.34375 C 155.082031 161.003906 155.617188 161.535156 156.273438 161.535156 L 218.726562 161.535156 C 219.382812 161.535156 219.917969 161.003906 219.917969 160.34375 C 219.917969 159.6875 219.382812 159.15625 218.726562 159.15625 Z M 156.273438 159.15625 " fill-opacity="1" fill-rule="nonzero"/><path fill="#000000" d="M 219.917969 171.65625 C 219.917969 170.996094 219.382812 170.464844 218.726562 170.464844 L 153.429688 170.464844 C 152.769531 170.464844 152.238281 170.996094 152.238281 171.65625 C 152.238281 172.3125 152.769531 172.84375 153.429688 172.84375 L 218.726562 172.84375 C 219.382812 172.84375 219.917969 172.3125 219.917969 171.65625 Z M 219.917969 171.65625 " fill-opacity="1" fill-rule="nonzero"/><path fill="#000000" d="M 207.367188 180.355469 L 173.308594 180.355469 C 172.652344 180.355469 172.117188 180.890625 172.117188 181.546875 C 172.117188 182.203125 172.652344 182.738281 173.308594 182.738281 L 207.367188 182.738281 C 208.027344 182.738281 208.558594 182.203125 208.558594 181.546875 C 208.558594 180.890625 208.027344 180.355469 207.367188 180.355469 Z M 207.367188 180.355469 " fill-opacity="1" fill-rule="nonzero"/><path fill="#000000" d="M 153.535156 145.84375 L 155.117188 148.492188 C 155.671875 149.394531 156.632812 149.933594 157.695312 149.933594 C 157.699219 149.933594 157.703125 149.933594 157.707031 149.933594 C 158.765625 149.929688 159.726562 149.386719 160.273438 148.480469 L 161.835938 145.863281 C 161.980469 145.621094 162.265625 145.503906 162.535156 145.574219 L 165.507812 146.3125 C 166.546875 146.570312 167.617188 146.273438 168.371094 145.519531 C 169.121094 144.769531 169.414062 143.707031 169.15625 142.671875 L 168.40625 139.710938 C 168.339844 139.453125 168.460938 139.175781 168.699219 139.03125 L 171.324219 137.464844 C 172.242188 136.917969 172.789062 135.957031 172.789062 134.894531 C 172.789062 133.832031 172.242188 132.871094 171.324219 132.320312 L 168.6875 130.746094 C 168.453125 130.609375 168.339844 130.339844 168.40625 130.078125 L 169.15625 127.113281 C 169.414062 126.082031 169.121094 125.019531 168.371094 124.269531 C 167.617188 123.515625 166.550781 123.214844 165.507812 123.476562 L 162.535156 124.214844 C 162.265625 124.273438 161.980469 124.164062 161.839844 123.933594 L 160.269531 121.3125 C 159.726562 120.410156 158.765625 119.867188 157.707031 119.863281 C 157.703125 119.863281 157.699219 119.863281 157.695312 119.863281 C 156.632812 119.863281 155.671875 120.402344 155.113281 121.3125 L 153.546875 123.925781 C 153.398438 124.160156 153.109375 124.28125 152.851562 124.214844 L 149.875 123.476562 C 148.84375 123.214844 147.769531 123.511719 147.015625 124.269531 C 146.261719 125.023438 145.96875 126.085938 146.226562 127.113281 L 146.976562 130.070312 C 147.042969 130.339844 146.929688 130.609375 146.6875 130.753906 C 145.816406 131.277344 144.9375 131.796875 144.050781 132.324219 C 143.144531 132.871094 142.601562 133.832031 142.601562 134.894531 C 142.601562 135.953125 143.144531 136.910156 144.058594 137.464844 C 144.9375 137.984375 145.816406 138.507812 146.683594 139.03125 C 146.921875 139.171875 147.042969 139.453125 146.976562 139.707031 L 146.226562 142.671875 C 145.96875 143.703125 146.261719 144.769531 147.015625 145.519531 C 147.769531 146.273438 148.835938 146.574219 149.871094 146.308594 L 152.84375 145.570312 C 153.113281 145.507812 153.402344 145.625 153.535156 145.84375 Z M 149.292969 144 C 148.984375 144.078125 148.769531 143.910156 148.695312 143.835938 C 148.605469 143.742188 148.460938 143.546875 148.535156 143.257812 L 149.285156 140.289062 C 149.605469 139.007812 149.054688 137.683594 147.910156 136.992188 C 147.042969 136.46875 146.15625 135.941406 145.28125 135.421875 C 145.011719 135.257812 144.980469 135 144.980469 134.894531 C 144.980469 134.789062 145.011719 134.527344 145.273438 134.371094 C 146.15625 133.84375 147.039062 133.320312 147.898438 132.800781 C 149.050781 132.128906 149.605469 130.800781 149.285156 129.496094 L 148.535156 126.53125 C 148.460938 126.234375 148.621094 126.027344 148.699219 125.953125 C 148.773438 125.878906 148.984375 125.714844 149.296875 125.789062 L 152.273438 126.527344 C 153.558594 126.839844 154.882812 126.296875 155.578125 125.164062 L 157.144531 122.550781 C 157.3125 122.277344 157.582031 122.246094 157.695312 122.246094 C 157.769531 122.269531 158.066406 122.273438 158.230469 122.546875 L 159.804688 125.171875 C 160.496094 126.300781 161.824219 126.84375 163.109375 126.523438 L 166.082031 125.789062 C 166.398438 125.710938 166.605469 125.878906 166.683594 125.953125 C 166.757812 126.027344 166.921875 126.230469 166.84375 126.53125 L 166.09375 129.503906 C 165.769531 130.804688 166.328125 132.128906 167.472656 132.800781 L 170.101562 134.371094 C 170.367188 134.527344 170.40625 134.765625 170.40625 134.894531 C 170.40625 135.023438 170.367188 135.261719 170.105469 135.417969 L 167.472656 136.992188 C 167.472656 136.992188 167.46875 136.992188 167.464844 136.996094 C 166.324219 137.683594 165.773438 139.007812 166.09375 140.292969 L 166.84375 143.253906 C 166.917969 143.550781 166.777344 143.75 166.683594 143.839844 C 166.609375 143.914062 166.394531 144.082031 166.082031 144 L 163.105469 143.261719 C 161.820312 142.941406 160.496094 143.492188 159.796875 144.632812 L 158.230469 147.257812 C 158.066406 147.523438 157.800781 147.554688 157.695312 147.554688 C 157.621094 147.578125 157.316406 147.527344 157.152344 147.261719 L 155.574219 144.617188 C 155.011719 143.703125 154.035156 143.171875 153.003906 143.171875 C 152.761719 143.171875 152.515625 143.203125 152.273438 143.261719 Z M 149.292969 144 " fill-opacity="1" fill-rule="nonzero"/></svg>