<svg xmlns="http://www.w3.org/2000/svg" xmlns:xlink="http://www.w3.org/1999/xlink" width="500" zoomAndPan="magnify" viewBox="0 0 375 374.999991" height="500" preserveAspectRatio="xMidYMid meet" version="1.0"><path fill="#b1904e" d="M 136.5625 299.085938 L 136.5625 77.109375 C 136.5625 71.390625 132.605469 66.761719 127.726562 66.761719 C 122.84375 66.761719 118.886719 71.390625 118.886719 77.109375 L 118.886719 299.085938 C 118.886719 304.800781 122.84375 309.4375 127.726562 309.4375 C 132.605469 309.4375 136.5625 304.800781 136.5625 299.085938 " fill-opacity="1" fill-rule="nonzero"/><path fill="#b1904e" d="M 165.894531 299.089844 L 165.894531 77.105469 C 165.894531 71.390625 161.9375 66.753906 157.058594 66.753906 C 152.175781 66.753906 148.21875 71.390625 148.21875 77.105469 L 148.21875 299.089844 C 148.21875 304.804688 152.175781 309.441406 157.058594 309.441406 C 161.9375 309.441406 165.894531 304.804688 165.894531 299.089844 " fill-opacity="1" fill-rule="nonzero"/><path fill="#b1904e" d="M 195.234375 299.089844 L 195.234375 77.105469 C 195.234375 71.390625 191.273438 66.753906 186.394531 66.753906 C 181.511719 66.753906 177.554688 71.390625 177.554688 77.105469 L 177.554688 299.089844 C 177.554688 304.804688 181.511719 309.441406 186.394531 309.441406 C 191.273438 309.441406 195.234375 304.804688 195.234375 299.089844 " fill-opacity="1" fill-rule="nonzero"/><path fill="#b1904e" d="M 82.59375 23.921875 L 231.519531 23.921875 C 236.402344 23.921875 240.359375 19.289062 240.359375 13.570312 C 240.359375 7.855469 236.402344 3.222656 231.519531 3.222656 L 82.59375 3.222656 C 77.714844 3.222656 73.757812 7.855469 73.757812 13.570312 C 73.757812 19.289062 77.714844 23.921875 82.59375 23.921875 " fill-opacity="1" fill-rule="nonzero"/><path fill="#b1904e" d="M 231.519531 352.277344 L 82.59375 352.277344 C 77.714844 352.277344 73.757812 356.90625 73.757812 362.625 C 73.757812 368.339844 77.714844 372.976562 82.59375 372.976562 L 231.519531 372.976562 C 236.402344 372.976562 240.359375 368.339844 240.359375 362.625 C 240.359375 356.90625 236.402344 352.277344 231.519531 352.277344 " fill-opacity="1" fill-rule="nonzero"/><path fill="#b1904e" d="M 217.234375 37.582031 L 96.878906 37.582031 C 92 37.582031 88.039062 42.21875 88.039062 47.933594 C 88.039062 53.648438 92 58.285156 96.878906 58.285156 L 217.234375 58.285156 C 278.355469 58.285156 328.078125 116.519531 328.078125 188.101562 C 328.078125 259.679688 278.355469 317.910156 217.234375 317.910156 C 217.226562 317.910156 217.222656 317.910156 217.210938 317.910156 L 79.203125 317.910156 C 78.972656 317.910156 78.746094 317.933594 78.519531 317.949219 C 78.289062 317.929688 78.054688 317.910156 77.816406 317.910156 C 61.667969 317.910156 48.53125 302.527344 48.53125 283.617188 C 48.53125 264.707031 61.667969 249.320312 77.816406 249.320312 C 82.699219 249.320312 86.652344 244.683594 86.652344 238.96875 C 86.652344 233.253906 82.699219 228.617188 77.816406 228.617188 C 51.921875 228.617188 30.855469 253.289062 30.855469 283.617188 C 30.855469 313.9375 51.921875 338.609375 77.816406 338.609375 C 78.046875 338.609375 78.273438 338.589844 78.5 338.570312 C 78.730469 338.589844 78.964844 338.613281 79.203125 338.613281 L 217.234375 338.613281 C 217.246094 338.613281 217.253906 338.609375 217.265625 338.609375 C 288.117188 338.59375 345.753906 271.082031 345.753906 188.101562 C 345.753906 105.105469 288.101562 37.582031 217.234375 37.582031 " fill-opacity="1" fill-rule="nonzero"/></svg>